<svg width="49" height="47" viewBox="0 0 49 47" fill="none" xmlns="http://www.w3.org/2000/svg">
<g clip-path="url(#clip0_1083_786)">
<path d="M24.1338 45.1796C36.4302 45.1796 46.3984 35.4733 46.3984 23.5C46.3984 11.5266 36.4302 1.82031 24.1338 1.82031C11.8374 1.82031 1.86914 11.5266 1.86914 23.5C1.86914 35.4733 11.8374 45.1796 24.1338 45.1796Z" fill="#A01C0E"/>
<path d="M24.1341 47C10.8276 47 0 36.4587 0 23.5C0 10.5431 10.8276 0 24.1341 0C37.4424 0 48.2682 10.5431 48.2682 23.5C48.2682 36.4587 37.4424 47 24.1341 47ZM24.1341 3.64057C12.8877 3.64057 3.7388 12.5491 3.7388 23.5C3.7388 34.4509 12.8877 43.3594 24.1341 43.3594C35.3805 43.3594 44.5294 34.4491 44.5294 23.5C44.5294 12.5491 35.3805 3.64057 24.1341 3.64057Z" fill="#A01C0E"/>
<g opacity="0.8">
<path d="M24.1351 34.2577C23.1032 34.2577 22.2656 33.444 22.2656 32.4374V14.2344C22.2656 13.2296 23.1032 12.4141 24.1351 12.4141C25.167 12.4141 26.0045 13.2296 26.0045 14.2344V32.4374C26.0045 33.444 25.167 34.2577 24.1351 34.2577Z" fill="#11111E"/>
<path d="M33.4815 25.1563H14.7874C13.7555 25.1563 12.918 24.3408 12.918 23.336C12.918 22.3311 13.7555 21.5156 14.7874 21.5156H33.4815C34.5153 21.5156 35.351 22.3311 35.351 23.336C35.351 24.3408 34.5153 25.1563 33.4815 25.1563Z" fill="#11111E"/>
</g>
</g>
<defs>
<clipPath id="clip0_1083_786">
<rect width="48.2682" height="47" fill="white"/>
</clipPath>
</defs>
</svg>
