<svg width="36" height="36" viewBox="0 0 36 36" fill="none" xmlns="http://www.w3.org/2000/svg">
<path d="M18.0002 34.6055C27.1713 34.6055 34.6059 27.1708 34.6059 17.9997C34.6059 8.82867 27.1713 1.39404 18.0002 1.39404C8.82915 1.39404 1.39453 8.82867 1.39453 17.9997C1.39453 27.1708 8.82915 34.6055 18.0002 34.6055Z" fill="#A01C0E"/>
<path d="M18 36C8.0756 36 0 27.9258 0 18C0 8.0756 8.0756 0 18 0C27.9258 0 36 8.0756 36 18C36 27.9258 27.9258 36 18 36ZM18 2.78852C9.61207 2.78852 2.78852 9.61207 2.78852 18C2.78852 26.3879 9.61207 33.2115 18 33.2115C26.3879 33.2115 33.2115 26.3865 33.2115 18C33.2115 9.61207 26.3879 2.78852 18 2.78852Z" fill="#A01C0E"/>
<g opacity="0.8">
<path d="M17.9998 26.2401C17.2301 26.2401 16.6055 25.6168 16.6055 24.8458V10.9031C16.6055 10.1334 17.2301 9.50879 17.9998 9.50879C18.7694 9.50879 19.3941 10.1334 19.3941 10.9031V24.8458C19.3941 25.6168 18.7694 26.2401 17.9998 26.2401Z" fill="#11111E"/>
<path d="M24.9718 19.2686H11.0291C10.2594 19.2686 9.63477 18.6439 9.63477 17.8743C9.63477 17.1046 10.2594 16.48 11.0291 16.48H24.9718C25.7428 16.48 26.3661 17.1046 26.3661 17.8743C26.3661 18.6439 25.7428 19.2686 24.9718 19.2686Z" fill="#11111E"/>
</g>
</svg>
