<svg width="24" height="25" viewBox="0 0 24 25" fill="none" xmlns="http://www.w3.org/2000/svg">
<path fill-rule="evenodd" clip-rule="evenodd" d="M23.6075 20.375C23.0135 21.4134 21.6973 21.7695 20.6682 21.17C19.6391 20.5706 19.2866 19.2422 19.8807 18.2039C20.0163 17.9669 20.1891 17.7646 20.3882 17.6017C19.9294 17.7703 19.5245 18.0967 19.2615 18.5569C18.6677 19.5949 19.0199 20.9236 20.0493 21.5233L20.0644 21.5318C18.0082 23.67 15.1313 24.9999 11.9464 24.9999C11.7843 24.9999 11.6233 24.9952 11.4629 24.9885L11.7452 21.9934L11.9464 21.9961C16.5494 21.9961 20.2822 18.2296 20.2822 13.5852C20.2822 12.5471 20.0944 11.5526 19.7533 10.6346L22.4671 9.38281C22.9784 10.6834 23.2594 12.1018 23.2594 13.5852C23.2594 14.892 23.0398 16.1458 22.6388 17.3147C22.6996 17.343 22.7608 17.375 22.8199 17.4094C23.8491 18.0086 24.2016 19.337 23.6075 20.375Z" fill="#EEEEEE"/>
<path fill-rule="evenodd" clip-rule="evenodd" d="M14.7083 2.51382C17.8682 3.31487 20.5001 5.45775 21.9756 8.30687L19.2628 9.55803C17.8482 6.94614 15.1013 5.17517 11.9444 5.17517C9.35459 5.17517 7.0401 6.36765 5.5114 8.23771L3.08203 6.49334C4.73128 4.3977 7.09621 2.9001 9.80265 2.37623C9.79667 2.30882 9.79265 2.24038 9.79265 2.17122C9.79265 0.972389 10.7563 0 11.9444 0C13.1325 0 14.0962 0.972309 14.0962 2.17122C14.0962 3.37005 13.1326 4.34244 11.9444 4.34244C11.6732 4.34244 11.4142 4.29115 11.1753 4.19849C11.5492 4.51545 12.0307 4.70688 12.5568 4.70688C13.7451 4.70688 14.7086 3.73457 14.7086 2.53566L14.7083 2.51382Z" fill="#EEEEEE"/>
<path fill-rule="evenodd" clip-rule="evenodd" d="M0.288622 20.3782C-0.305482 19.3398 0.0469671 18.0115 1.07614 17.412C2.10524 16.8126 3.4214 17.1687 4.01543 18.207C4.15109 18.4444 4.23827 18.6958 4.2784 18.9514C4.36331 18.4663 4.28541 17.9494 4.02211 17.4895C3.42801 16.4512 2.11162 16.0951 1.08275 16.6946L1.06277 16.7063C0.783736 15.7142 0.633675 14.6683 0.633675 13.5861C0.633675 11.332 1.28294 9.22901 2.40119 7.45898L4.83167 9.20368C4.05815 10.4801 3.61081 11.9807 3.61081 13.5861C3.61081 17.7593 6.62531 21.2223 10.5761 21.8824L10.2937 24.8786C7.55384 24.4734 5.13376 23.0759 3.40094 21.0606C3.34546 21.1004 3.28763 21.1381 3.22782 21.1729C2.19881 21.7722 0.882647 21.4163 0.288622 20.3782Z" fill="#EEEEEE"/>
<path fill-rule="evenodd" clip-rule="evenodd" d="M11.9477 6.47559C15.8372 6.47559 18.9924 9.65921 18.9924 13.5845C18.9924 17.5091 15.8372 20.6927 11.9477 20.6927C11.8471 20.6927 11.7478 20.6897 11.6484 20.6852C15.0752 20.5309 17.808 17.6776 17.808 14.1819C17.808 10.5866 14.9182 7.67069 11.3553 7.67069C7.8901 7.67069 5.06271 10.4278 4.90966 13.8861C4.90533 13.7861 4.90234 13.6859 4.90234 13.5844C4.90227 9.65921 8.05747 6.47559 11.9477 6.47559Z" fill="#EEEEEE"/>
<path fill-rule="evenodd" clip-rule="evenodd" d="M11.3529 8.56885C11.4479 8.56885 11.5417 8.57107 11.6358 8.57575C8.99053 8.71565 6.88796 10.9248 6.88796 13.6285C6.88796 16.422 9.13343 18.6878 11.9024 18.6878C14.582 18.6878 16.7708 16.5653 16.9091 13.8963C16.9138 13.9909 16.9165 14.0871 16.9165 14.1829C16.9165 17.2828 14.4251 19.7966 11.3529 19.7966C8.28052 19.7966 5.78906 17.2828 5.78906 14.1829C5.78906 11.0828 8.28052 8.56885 11.3529 8.56885Z" fill="#EEEEEE"/>
</svg>
