<svg width="40" height="40" viewBox="0 0 40 40" fill="none" xmlns="http://www.w3.org/2000/svg">
<path fill-rule="evenodd" clip-rule="evenodd" d="M39.5164 32.6002C38.5228 34.2615 36.3208 34.8312 34.5992 33.8721C32.8776 32.913 32.2878 30.7878 33.2817 29.1266C33.5087 28.7472 33.7976 28.4237 34.1308 28.163C33.3632 28.4327 32.6859 28.9549 32.2458 29.6912C31.2524 31.3521 31.8417 33.4778 33.5638 34.4374L33.5891 34.4509C30.1491 37.8719 25.3363 39.9998 20.008 39.9998C19.737 39.9998 19.4675 39.9922 19.1992 39.9816L19.6716 35.1895L20.008 35.1938C27.7086 35.1938 33.9535 29.1676 33.9535 21.7368C33.9535 20.076 33.6393 18.4847 33.0686 17.016L37.6087 15.0132C38.464 17.0941 38.9341 19.3634 38.9341 21.7368C38.9341 23.8276 38.5668 25.8336 37.8959 27.7038C37.9977 27.749 38.1 27.8003 38.1988 27.8553C39.9206 28.8141 40.5103 30.9395 39.5164 32.6002Z" fill="#A01C0E"/>
<path fill-rule="evenodd" clip-rule="evenodd" d="M24.6317 4.022C29.9181 5.30363 34.321 8.73213 36.7896 13.2906L32.2512 15.2924C29.8845 11.1135 25.2892 8.28002 20.0079 8.28002C15.6753 8.28002 11.8033 10.1879 9.24585 13.1799L5.18164 10.389C7.94074 7.03611 11.8971 4.64001 16.4249 3.80185C16.4149 3.694 16.4081 3.58449 16.4081 3.47385C16.4081 1.55577 18.0202 0 20.0079 0C21.9956 0 23.6078 1.55565 23.6078 3.47385C23.6078 5.39192 21.9957 6.9477 20.0079 6.9477C19.5541 6.9477 19.1209 6.86563 18.7212 6.71738C19.3467 7.2245 20.1522 7.53078 21.0325 7.53078C23.0203 7.53078 24.6323 5.97513 24.6323 4.05693L24.6317 4.022Z" fill="#A01C0E"/>
<path fill-rule="evenodd" clip-rule="evenodd" d="M0.482849 32.6046C-0.511054 30.9433 0.0785733 28.818 1.80033 27.8589C3.52195 26.8998 5.72381 27.4696 6.71758 29.1309C6.94454 29.5106 7.09039 29.9129 7.15753 30.3218C7.29957 29.5457 7.16925 28.7187 6.72877 27.9829C5.73487 26.3217 3.53262 25.752 1.81139 26.7111L1.77795 26.7299C1.31115 25.1425 1.0601 23.4692 1.0601 21.7377C1.0601 18.1312 2.14629 14.7665 4.01706 11.9346L8.08311 14.726C6.78906 16.7682 6.04068 19.1691 6.04068 21.7377C6.04068 28.4146 11.0838 33.9553 17.6932 35.0114L17.2208 39.8051C12.6372 39.1569 8.58849 36.9208 5.68958 33.6965C5.59678 33.7601 5.50002 33.8205 5.39997 33.8761C3.67848 34.8351 1.47662 34.2656 0.482849 32.6046Z" fill="#A01C0E"/>
<path fill-rule="evenodd" clip-rule="evenodd" d="M19.9623 10.3608C26.4693 10.3608 31.7477 15.4545 31.7477 21.7348C31.7477 28.014 26.4693 33.1075 19.9623 33.1075C19.794 33.1075 19.6279 33.1027 19.4615 33.0956C25.1944 32.8486 29.7662 28.2836 29.7662 22.6905C29.7662 16.9382 24.9317 12.2729 18.9713 12.2729C13.1741 12.2729 8.44407 16.6842 8.18802 22.2173C8.18078 22.0573 8.17578 21.897 8.17578 21.7346C8.17565 15.4545 13.4541 10.3608 19.9623 10.3608Z" fill="#A01C0E"/>
<path fill-rule="evenodd" clip-rule="evenodd" d="M19.0151 13.7085C19.174 13.7085 19.3309 13.7121 19.4882 13.7195C15.0629 13.9434 11.5454 17.4779 11.5454 21.8037C11.5454 26.2732 15.302 29.8984 19.9344 29.8984C24.4172 29.8984 28.0788 26.5025 28.3102 22.2322C28.318 22.3836 28.3226 22.5374 28.3226 22.6908C28.3226 27.6504 24.1547 31.6724 19.0151 31.6724C13.8751 31.6724 9.70703 27.6504 9.70703 22.6908C9.70703 17.7306 13.8751 13.7085 19.0151 13.7085Z" fill="#A01C0E"/>
</svg>
