<svg width="130" height="130" viewBox="0 0 130 130" fill="none" xmlns="http://www.w3.org/2000/svg">
<path d="M65.6829 130.385C29.9489 130.385 0.980469 101.417 0.980469 65.6829C0.980469 29.9485 29.9485 0.980469 65.6829 0.980469L73.8854 65.6829L65.6829 130.385Z" fill="#EAB53D"/>
<path d="M65.6826 0.983398C101.417 0.983398 130.385 29.9515 130.385 65.6858C130.385 101.42 101.417 130.388 65.6826 130.388V0.983398Z" fill="#E9A203"/>
<path fill-rule="evenodd" clip-rule="evenodd" d="M104.152 91.4317C102.178 94.8521 97.8031 96.0251 94.3827 94.0505C90.9622 92.0759 89.7905 87.7002 91.7652 84.2801C92.2161 83.4991 92.7901 82.8329 93.4521 82.2963C91.927 82.8515 90.5814 83.9267 89.7071 85.4426C87.7335 88.862 88.9041 93.2387 92.3256 95.2144L92.3759 95.2421C85.5415 102.285 75.9795 106.667 65.3935 106.667C64.855 106.667 64.3196 106.651 63.7866 106.629L64.725 96.7627L65.3935 96.7716C80.6927 96.7716 93.0998 84.3645 93.0998 69.0656C93.0998 65.6462 92.4755 62.3701 91.3417 59.3461L100.362 55.2227C102.061 59.507 102.995 64.1792 102.995 69.0656C102.995 73.3703 102.265 77.5003 100.932 81.3508C101.135 81.4439 101.338 81.5495 101.534 81.6628C104.955 83.6367 106.127 88.0125 104.152 91.4317Z" fill="#EEEEEE"/>
<path fill-rule="evenodd" clip-rule="evenodd" d="M74.5802 32.5942C85.0829 35.2329 93.8305 42.2917 98.7349 51.6768L89.7182 55.7982C85.0162 47.1945 75.8863 41.3608 65.3937 41.3608C56.7858 41.3608 49.0931 45.2889 44.0121 51.449L35.9375 45.703C41.4192 38.7998 49.2796 33.8666 58.2751 32.1409C58.2552 31.9189 58.2419 31.6934 58.2419 31.4656C58.2419 27.5166 61.4447 24.3135 65.3937 24.3135C69.3428 24.3135 72.5459 27.5163 72.5459 31.4656C72.5459 35.4147 69.343 38.6178 65.3937 38.6178C64.4922 38.6178 63.6315 38.4488 62.8374 38.1436C64.08 39.1877 65.6804 39.8182 67.4293 39.8182C71.3786 39.8182 74.5812 36.6154 74.5812 32.6661L74.5802 32.5942Z" fill="#EEEEEE"/>
<path fill-rule="evenodd" clip-rule="evenodd" d="M26.6453 91.4414C24.6707 88.0209 25.8421 83.6453 29.2629 81.6707C32.6833 79.696 37.0579 80.8691 39.0323 84.2895C39.4832 85.0713 39.773 85.8996 39.9063 86.7415C40.1885 85.1435 39.9296 83.4408 39.0545 81.926C37.0799 78.5058 32.7045 77.3328 29.2848 79.3074L29.2184 79.3461C28.291 76.0779 27.7922 72.6328 27.7922 69.068C27.7922 61.6428 29.9502 54.7153 33.667 48.8848L41.7452 54.6319C39.1743 58.8365 37.6874 63.7796 37.6874 69.068C37.6874 82.8147 47.7069 94.2221 60.8381 96.3966L59.8997 106.266C50.7931 104.932 42.7493 100.328 36.9899 93.6894C36.8055 93.8204 36.6133 93.9446 36.4145 94.0592C32.9943 96.0336 28.6197 94.8611 26.6453 91.4414Z" fill="#EEEEEE"/>
<path fill-rule="evenodd" clip-rule="evenodd" d="M65.395 45.6465C78.3228 45.6465 88.8098 56.1336 88.8098 69.0637C88.8098 81.9917 78.3228 92.4786 65.395 92.4786C65.0607 92.4786 64.7307 92.4686 64.4001 92.454C75.79 91.9455 84.8731 82.5467 84.8731 71.0315C84.8731 59.1884 75.2679 49.5832 63.4261 49.5832C51.9085 49.5832 42.511 58.6653 42.0023 70.0573C41.988 69.7278 41.978 69.3977 41.978 69.0634C41.9778 56.1336 52.4648 45.6465 65.395 45.6465Z" fill="#EEEEEE"/>
<path fill-rule="evenodd" clip-rule="evenodd" d="M63.4255 52.5391C63.7412 52.5391 64.0529 52.5464 64.3655 52.5618C55.5735 53.0227 48.5851 60.2998 48.5851 69.2059C48.5851 78.408 56.0484 85.8716 65.2519 85.8716C74.1582 85.8716 81.433 78.8801 81.8928 70.088C81.9082 70.3998 81.9174 70.7165 81.9174 71.0322C81.9174 81.2434 73.6367 89.5241 63.4255 89.5241C53.2136 89.5241 44.9326 81.2434 44.9326 71.0322C44.9326 60.82 53.2136 52.5391 63.4255 52.5391Z" fill="#EEEEEE"/>
</svg>
