<svg width="50" height="46" viewBox="0 0 50 46" fill="none" xmlns="http://www.w3.org/2000/svg">
<g clip-path="url(#clip0_1051_1816)">
<path d="M19.2707 15.1516H3.64571C1.63536 15.1516 0 13.6649 0 11.837V3.31428C0 1.48669 1.63536 0 3.64571 0H19.2707C21.2814 0 22.9168 1.48669 22.9168 3.31428V11.837C22.9168 13.6649 21.2814 15.1516 19.2707 15.1516ZM3.64571 2.84091C3.35846 2.84091 3.125 3.05314 3.125 3.31428V11.837C3.125 12.0985 3.35846 12.3107 3.64571 12.3107H19.2707C19.5583 12.3107 19.7918 12.0985 19.7918 11.837V3.31428C19.7918 3.05314 19.5583 2.84091 19.2707 2.84091H3.64571Z" fill="#A01C0E"/>
<path d="M19.2707 45.4547H3.64571C1.63536 45.4547 0 43.968 0 42.1404V22.2541C0 20.4261 1.63536 18.9395 3.64571 18.9395H19.2707C21.2814 18.9395 22.9168 20.4261 22.9168 22.2541V42.1404C22.9168 43.968 21.2814 45.4547 19.2707 45.4547ZM3.64571 21.7804C3.35846 21.7804 3.125 21.9926 3.125 22.2541V42.1404C3.125 42.4016 3.35846 42.6138 3.64571 42.6138H19.2707C19.5583 42.6138 19.7918 42.4016 19.7918 42.1404V22.2541C19.7918 21.9926 19.5583 21.7804 19.2707 21.7804H3.64571Z" fill="#A01C0E"/>
<path d="M46.3551 45.4544H30.7301C28.7193 45.4544 27.084 43.9677 27.084 42.1401V33.6174C27.084 31.7894 28.7193 30.3027 30.7301 30.3027H46.3551C48.3654 30.3027 50.0008 31.7894 50.0008 33.6174V42.1401C50.0008 43.9677 48.3654 45.4544 46.3551 45.4544ZM30.7301 33.1436C30.4424 33.1436 30.209 33.3559 30.209 33.6174V42.1401C30.209 42.4012 30.4424 42.6135 30.7301 42.6135H46.3551C46.6423 42.6135 46.8758 42.4012 46.8758 42.1401V33.6174C46.8758 33.3559 46.6423 33.1436 46.3551 33.1436H30.7301Z" fill="#A01C0E"/>
<path d="M46.3551 26.5153H30.7301C28.7193 26.5153 27.084 25.0286 27.084 23.2006V3.31428C27.084 1.48669 28.7193 0 30.7301 0H46.3551C48.3654 0 50.0008 1.48669 50.0008 3.31428V23.2006C50.0008 25.0286 48.3654 26.5153 46.3551 26.5153ZM30.7301 2.84091C30.4424 2.84091 30.209 3.05314 30.209 3.31428V23.2006C30.209 23.4621 30.4424 23.6744 30.7301 23.6744H46.3551C46.6423 23.6744 46.8758 23.4621 46.8758 23.2006V3.31428C46.8758 3.05314 46.6423 2.84091 46.3551 2.84091H30.7301Z" fill="#A01C0E"/>
</g>
<defs>
<clipPath id="clip0_1051_1816">
<rect width="50" height="45.4545" fill="white"/>
</clipPath>
</defs>
</svg>
