<svg width="40" height="40" viewBox="0 0 40 40" fill="none" xmlns="http://www.w3.org/2000/svg">
<path d="M24.5049 1.59136C33.275 7.78053 43.3979 17.4033 38.8916 26.643C34.3854 35.8826 30.5558 41.3793 19.7434 39.6993C8.931 38.0193 -1.52608 29.3879 0.184736 18.9695C1.89555 8.55106 15.7341 -4.59781 24.5049 1.59136Z" fill="#171724"/>
<path d="M32.8494 31.5968C33.1622 31.5968 33.4157 31.3314 33.4157 31.004C33.4157 30.6766 33.1622 30.4111 32.8494 30.4111C32.5367 30.4111 32.2832 30.6766 32.2832 31.004C32.2832 31.3314 32.5367 31.5968 32.8494 31.5968Z" fill="#A01C0E"/>
<path d="M3.14189 27.3555C3.5061 27.3555 3.80135 27.0464 3.80135 26.6651C3.80135 26.2837 3.5061 25.9746 3.14189 25.9746C2.77767 25.9746 2.48242 26.2837 2.48242 26.6651C2.48242 27.0464 2.77767 27.3555 3.14189 27.3555Z" fill="#A01C0E"/>
<path d="M35.1818 29.1196C35.3264 29.1196 35.4436 28.9968 35.4436 28.8454C35.4436 28.694 35.3264 28.5713 35.1818 28.5713C35.0372 28.5713 34.9199 28.694 34.9199 28.8454C34.9199 28.9968 35.0372 29.1196 35.1818 29.1196Z" fill="#A01C0E"/>
<path opacity="0.6" d="M8.12119 10.1449C8.44377 10.1449 8.70528 9.87114 8.70528 9.5334C8.70528 9.19567 8.44377 8.92188 8.12119 8.92188C7.79861 8.92188 7.53711 9.19567 7.53711 9.5334C7.53711 9.87114 7.79861 10.1449 8.12119 10.1449Z" stroke="#A01C0E" stroke-width="0.8"/>
<path opacity="0.6" d="M33.3494 10.4312C33.756 10.4312 34.0856 10.0861 34.0856 9.66041C34.0856 9.23473 33.756 8.88965 33.3494 8.88965C32.9429 8.88965 32.6133 9.23473 32.6133 9.66041C32.6133 10.0861 32.9429 10.4312 33.3494 10.4312Z" stroke="#A01C0E"/>
<g clip-path="url(#clip0_1106_259)">
<path d="M20.1165 33.7652C26.5623 33.7652 31.7877 28.2996 31.7877 21.5574C31.7877 14.8152 26.5623 9.34961 20.1165 9.34961C13.6707 9.34961 8.44531 14.8152 8.44531 21.5574C8.44531 28.2996 13.6707 33.7652 20.1165 33.7652Z" fill="#213830"/>
<path d="M31.6617 23.3577C30.9126 28.6589 26.906 32.8498 21.8379 33.6332L15.2051 26.6955L25.0289 16.4199L31.6617 23.3577Z" fill="#1D342C"/>
<path d="M13.1699 21.5568C13.1699 17.544 16.28 14.291 20.1164 14.291C23.9528 14.291 27.0628 17.544 27.0628 21.5568C27.0628 25.5697 23.9528 28.8227 20.1164 28.8227C16.28 28.8227 13.1699 25.5697 13.1699 21.5568Z" fill="#A01C0E"/>
<path d="M20.1164 17.2266H20.1166C20.6534 17.2266 21.0924 17.6859 21.0924 18.2472V24.8676C21.0924 25.4289 20.6534 25.8882 20.1166 25.8882H20.1164C19.5797 25.8882 19.1406 25.4289 19.1406 24.8676V18.2472C19.1406 17.6859 19.5797 17.2266 20.1164 17.2266Z" fill="#F8F8F8"/>
<path d="M20.1169 25.8882H20.1166C20.0486 25.8882 19.9822 25.8808 19.918 25.8668C20.3603 25.7702 20.6951 25.3578 20.6951 24.8676V18.2472C20.6951 17.757 20.3603 17.3446 19.918 17.248C19.9822 17.234 20.0486 17.2266 20.1166 17.2266H20.1169C20.6537 17.2266 21.0926 17.6858 21.0926 18.2472V24.8675C21.0926 25.4289 20.6537 25.8882 20.1169 25.8882Z" fill="#D9D9DD"/>
<path d="M15.9766 21.558V21.5577C15.9766 20.9962 16.4157 20.5371 16.9524 20.5371H23.2818C23.8184 20.5371 24.2575 20.9962 24.2575 21.5577V21.558C24.2575 22.1195 23.8184 22.5786 23.2818 22.5786H16.9524C16.4157 22.5786 15.9766 22.1195 15.9766 21.558Z" fill="#F8F8F8"/>
<path d="M15.9766 21.5577V21.5573C15.9766 21.4862 15.9836 21.4168 15.9971 21.3496C16.0894 21.8123 16.4837 22.1625 16.9524 22.1625H23.2818C23.7505 22.1625 24.1446 21.8123 24.237 21.3496C24.2504 21.4168 24.2576 21.4862 24.2576 21.5573V21.5577C24.2576 22.1191 23.8185 22.5783 23.2818 22.5783H16.9524C16.4157 22.5783 15.9766 22.1191 15.9766 21.5577Z" fill="#D9D9DD"/>
<path d="M20.1176 15.7119C23.206 15.7119 25.7059 18.3268 25.7059 21.5572C25.7059 24.7875 23.206 27.4024 20.1176 27.4024C17.0292 27.4024 14.5293 24.7875 14.5293 21.5572C14.5293 18.3268 17.0292 15.7119 20.1176 15.7119Z" fill="#A01C0E"/>
<path d="M20.1171 14.2842C16.2775 14.2842 13.1641 17.5408 13.1641 21.5569C13.1641 25.5731 16.2775 28.8296 20.1171 28.8296C23.9567 28.8296 27.0702 25.5731 27.0702 21.5569C27.0702 17.5408 23.9567 14.2842 20.1171 14.2842ZM20.1171 27.341C17.0621 27.341 14.5872 24.7524 14.5872 21.5569C14.5872 18.3614 17.0621 15.7728 20.1171 15.7728C23.1721 15.7728 25.647 18.3614 25.647 21.5569C25.647 24.7524 23.1721 27.341 20.1171 27.341Z" fill="#A01C0E"/>
<mask id="path-16-inside-1_1106_259" fill="white">
<path fill-rule="evenodd" clip-rule="evenodd" d="M17.6055 26.7198C17.5032 26.6267 17.4096 26.5078 17.3295 26.3638L15.2501 22.6244C14.8609 21.9241 14.9341 20.8845 15.4127 20.3149V20.314C15.8919 19.7445 16.6016 19.8515 16.9908 20.5518L18.3862 23.0618L23.171 17.366C23.6495 16.7965 24.3593 16.9036 24.7491 17.6039C25.1389 18.3051 25.0658 19.3437 24.5872 19.9143L18.9415 26.634C18.5503 27.0996 18.0047 27.113 17.6055 26.7198Z"/>
</mask>
<path fill-rule="evenodd" clip-rule="evenodd" d="M17.6055 26.7198C17.5032 26.6267 17.4096 26.5078 17.3295 26.3638L15.2501 22.6244C14.8609 21.9241 14.9341 20.8845 15.4127 20.3149V20.314C15.8919 19.7445 16.6016 19.8515 16.9908 20.5518L18.3862 23.0618L23.171 17.366C23.6495 16.7965 24.3593 16.9036 24.7491 17.6039C25.1389 18.3051 25.0658 19.3437 24.5872 19.9143L18.9415 26.634C18.5503 27.0996 18.0047 27.113 17.6055 26.7198Z" fill="#F3F3F3"/>
<path d="M17.6055 26.7198L17.746 26.5772L17.7401 26.5719L17.6055 26.7198ZM17.3295 26.3638L17.5044 26.2666L17.5043 26.2666L17.3295 26.3638ZM15.2501 22.6244L15.0753 22.7215L15.0753 22.7216L15.2501 22.6244ZM15.4127 20.3149L15.5658 20.4436L15.6127 20.3878V20.3149H15.4127ZM15.4127 20.314L15.2596 20.1852L15.2127 20.241V20.314H15.4127ZM16.9908 20.5518L16.816 20.649L16.816 20.649L16.9908 20.5518ZM18.3862 23.0618L18.2114 23.1589L18.3525 23.4128L18.5393 23.1904L18.3862 23.0618ZM23.171 17.366L23.0178 17.2374L23.0178 17.2374L23.171 17.366ZM24.7491 17.6039L24.9239 17.5067L24.9239 17.5066L24.7491 17.6039ZM24.5872 19.9143L24.7403 20.0429L24.7404 20.0428L24.5872 19.9143ZM18.9415 26.634L19.0946 26.7627L19.0946 26.7627L18.9415 26.634ZM17.7401 26.5719C17.6555 26.4949 17.575 26.3937 17.5044 26.2666L17.1547 26.4609C17.2441 26.6218 17.3508 26.7585 17.4709 26.8677L17.7401 26.5719ZM17.5043 26.2666L15.4249 22.5272L15.0753 22.7216L17.1548 26.461L17.5043 26.2666ZM15.4249 22.5272C15.2523 22.2165 15.1783 21.8215 15.2055 21.4347C15.2328 21.0469 15.3601 20.6883 15.5658 20.4436L15.2595 20.1862C14.9866 20.5111 14.8381 20.957 14.8065 21.4066C14.7748 21.857 14.8588 22.3319 15.0753 22.7215L15.4249 22.5272ZM15.6127 20.3149V20.314H15.2127V20.3149H15.6127ZM15.5657 20.4427C15.7684 20.2019 15.9998 20.1234 16.2057 20.1545C16.4159 20.1862 16.6437 20.3389 16.816 20.649L17.1656 20.4547C16.9488 20.0645 16.6271 19.8135 16.2653 19.759C15.8992 19.7038 15.5362 19.8566 15.2596 20.1852L15.5657 20.4427ZM16.816 20.649L18.2114 23.1589L18.561 22.9646L17.1656 20.4547L16.816 20.649ZM18.5393 23.1904L23.3241 17.4947L23.0178 17.2374L18.2331 22.9331L18.5393 23.1904ZM23.3241 17.4947C23.5264 17.2539 23.7576 17.1755 23.9635 17.2065C24.1738 17.2382 24.4017 17.3909 24.5744 17.7011L24.9239 17.5066C24.7067 17.1165 24.3848 16.8655 24.0231 16.811C23.657 16.7558 23.2941 16.9086 23.0178 17.2374L23.3241 17.4947ZM24.5743 17.7011C24.7473 18.0123 24.8214 18.4073 24.7943 18.7941C24.7671 19.1817 24.6397 19.5404 24.434 19.7857L24.7404 20.0428C25.0132 19.7176 25.1617 19.2717 25.1933 18.8221C25.2249 18.3716 25.1407 17.8967 24.9239 17.5067L24.5743 17.7011ZM24.4341 19.7856L18.7884 26.5054L19.0946 26.7627L24.7403 20.0429L24.4341 19.7856ZM18.7884 26.5054C18.6222 26.7031 18.4369 26.7902 18.266 26.7992C18.0949 26.8082 17.9115 26.7405 17.7459 26.5773L17.4652 26.8623C17.6987 27.0923 17.9877 27.2144 18.287 27.1986C18.5865 27.1829 18.8696 27.0305 19.0946 26.7627L18.7884 26.5054Z" fill="#A01C0E" mask="url(#path-16-inside-1_1106_259)"/>
</g>
<defs>
<clipPath id="clip0_1106_259">
<rect width="23.3424" height="24.4156" fill="white" transform="translate(8.44531 9.34961)"/>
</clipPath>
</defs>
</svg>
