<svg width="40" height="40" viewBox="0 0 40 40" fill="none" xmlns="http://www.w3.org/2000/svg">
<path d="M24.5049 1.59136C33.275 7.78053 43.3979 17.4033 38.8916 26.643C34.3854 35.8826 30.5558 41.3793 19.7434 39.6993C8.931 38.0193 -1.52608 29.3879 0.184736 18.9695C1.89555 8.55106 15.7341 -4.59781 24.5049 1.59136Z" fill="#171724"/>
<path d="M32.8494 31.5968C33.1622 31.5968 33.4157 31.3314 33.4157 31.004C33.4157 30.6766 33.1622 30.4111 32.8494 30.4111C32.5367 30.4111 32.2832 30.6766 32.2832 31.004C32.2832 31.3314 32.5367 31.5968 32.8494 31.5968Z" fill="#A01C0E"/>
<path d="M3.14189 27.3555C3.5061 27.3555 3.80135 27.0464 3.80135 26.6651C3.80135 26.2837 3.5061 25.9746 3.14189 25.9746C2.77767 25.9746 2.48242 26.2837 2.48242 26.6651C2.48242 27.0464 2.77767 27.3555 3.14189 27.3555Z" fill="#A01C0E"/>
<path d="M35.1818 29.1196C35.3264 29.1196 35.4436 28.9968 35.4436 28.8454C35.4436 28.694 35.3264 28.5713 35.1818 28.5713C35.0372 28.5713 34.9199 28.694 34.9199 28.8454C34.9199 28.9968 35.0372 29.1196 35.1818 29.1196Z" fill="#A01C0E"/>
<path opacity="0.6" d="M8.12119 10.1449C8.44377 10.1449 8.70528 9.87114 8.70528 9.5334C8.70528 9.19567 8.44377 8.92188 8.12119 8.92188C7.79861 8.92188 7.53711 9.19567 7.53711 9.5334C7.53711 9.87114 7.79861 10.1449 8.12119 10.1449Z" stroke="#A01C0E" stroke-width="0.8"/>
<path opacity="0.6" d="M33.3494 10.4312C33.756 10.4312 34.0856 10.0861 34.0856 9.66041C34.0856 9.23473 33.756 8.88965 33.3494 8.88965C32.9429 8.88965 32.6133 9.23473 32.6133 9.66041C32.6133 10.0861 32.9429 10.4312 33.3494 10.4312Z" stroke="#A01C0E"/>
<g clip-path="url(#clip0_1080_540)">
<path d="M20.1165 33.7652C26.5623 33.7652 31.7877 28.2996 31.7877 21.5574C31.7877 14.8152 26.5623 9.34961 20.1165 9.34961C13.6707 9.34961 8.44531 14.8152 8.44531 21.5574C8.44531 28.2996 13.6707 33.7652 20.1165 33.7652Z" fill="#213830"/>
<path d="M31.6617 23.3577C30.9126 28.6589 26.906 32.8498 21.8379 33.6332L15.2051 26.6955L25.0289 16.4199L31.6617 23.3577Z" fill="#1D342C"/>
<path d="M13.1699 21.5568C13.1699 17.544 16.28 14.291 20.1164 14.291C23.9528 14.291 27.0628 17.544 27.0628 21.5568C27.0628 25.5697 23.9528 28.8227 20.1164 28.8227C16.28 28.8227 13.1699 25.5697 13.1699 21.5568Z" fill="#A01C0E"/>
<path d="M20.1164 17.2266H20.1166C20.6534 17.2266 21.0924 17.6859 21.0924 18.2472V24.8676C21.0924 25.4289 20.6534 25.8882 20.1166 25.8882H20.1164C19.5797 25.8882 19.1406 25.4289 19.1406 24.8676V18.2472C19.1406 17.6859 19.5797 17.2266 20.1164 17.2266Z" fill="#F8F8F8"/>
<path d="M20.1169 25.8882H20.1166C20.0486 25.8882 19.9822 25.8808 19.918 25.8668C20.3603 25.7702 20.6951 25.3578 20.6951 24.8676V18.2472C20.6951 17.757 20.3603 17.3446 19.918 17.248C19.9822 17.234 20.0486 17.2266 20.1166 17.2266H20.1169C20.6537 17.2266 21.0926 17.6858 21.0926 18.2472V24.8675C21.0926 25.4289 20.6537 25.8882 20.1169 25.8882Z" fill="#D9D9DD"/>
<path d="M15.9766 21.558V21.5577C15.9766 20.9962 16.4157 20.5371 16.9524 20.5371H23.2818C23.8184 20.5371 24.2575 20.9962 24.2575 21.5577V21.558C24.2575 22.1195 23.8184 22.5786 23.2818 22.5786H16.9524C16.4157 22.5786 15.9766 22.1195 15.9766 21.558Z" fill="#F8F8F8"/>
<path d="M15.9766 21.5577V21.5573C15.9766 21.4862 15.9836 21.4168 15.9971 21.3496C16.0894 21.8123 16.4837 22.1625 16.9524 22.1625H23.2818C23.7505 22.1625 24.1446 21.8123 24.237 21.3496C24.2504 21.4168 24.2576 21.4862 24.2576 21.5573V21.5577C24.2576 22.1191 23.8185 22.5783 23.2818 22.5783H16.9524C16.4157 22.5783 15.9766 22.1191 15.9766 21.5577Z" fill="#D9D9DD"/>
<path d="M20.1176 15.7119C23.206 15.7119 25.7059 18.3268 25.7059 21.5572C25.7059 24.7875 23.206 27.4024 20.1176 27.4024C17.0292 27.4024 14.5293 24.7875 14.5293 21.5572C14.5293 18.3268 17.0292 15.7119 20.1176 15.7119Z" fill="#A01C0E"/>
<path d="M20.1171 14.2842C16.2775 14.2842 13.1641 17.5408 13.1641 21.5569C13.1641 25.5731 16.2775 28.8296 20.1171 28.8296C23.9567 28.8296 27.0702 25.5731 27.0702 21.5569C27.0702 17.5408 23.9567 14.2842 20.1171 14.2842ZM20.1171 27.341C17.0621 27.341 14.5872 24.7524 14.5872 21.5569C14.5872 18.3614 17.0621 15.7728 20.1171 15.7728C23.1721 15.7728 25.647 18.3614 25.647 21.5569C25.647 24.7524 23.1721 27.341 20.1171 27.341Z" fill="#A01C0E"/>
<g clip-path="url(#clip1_1080_540)">
<path d="M23.0221 13.624H15.8279C15.1685 13.624 14.6289 14.1865 14.6289 14.874V23.624H15.8279V14.874H23.0221V13.624ZM24.8207 16.124H18.226C17.5665 16.124 17.027 16.6865 17.027 17.374V26.124C17.027 26.8115 17.5665 27.374 18.226 27.374H24.8207C25.4801 27.374 26.0197 26.8115 26.0197 26.124V17.374C26.0197 16.6865 25.4801 16.124 24.8207 16.124ZM24.8207 26.124H18.226V17.374H24.8207V26.124Z" fill="#F2F2F2"/>
</g>
</g>
<defs>
<clipPath id="clip0_1080_540">
<rect width="23.3424" height="24.4156" fill="white" transform="translate(8.44531 9.34961)"/>
</clipPath>
<clipPath id="clip1_1080_540">
<rect width="14.3884" height="15" fill="white" transform="translate(13.4297 12.999)"/>
</clipPath>
</defs>
</svg>
