<svg width="79" height="79" viewBox="0 0 79 79" fill="none" xmlns="http://www.w3.org/2000/svg">
<g clip-path="url(#clip0_804_9848)">
<path d="M56.19 14.8896L33.2545 0.929021C32.2371 0.309674 31.0896 0 29.9419 0C28.7942 0 27.6467 0.309674 26.6293 0.929021L3.69383 14.8896C2.74105 15.4697 1.97465 16.2777 1.44727 17.2198L3.70232 42.5346H56.1813L58.4365 17.2203C57.9093 16.278 57.1427 15.4697 56.19 14.8896Z" fill="#F94E56"/>
<path d="M3.7027 54.2257C1.79852 53.0708 0.635742 51.0053 0.635742 48.7784V20.3316C0.635742 19.2237 0.923969 18.1554 1.44765 17.2197L29.9421 34.5267L30.757 61.3071L29.9421 69.0605C28.7977 69.0605 27.6534 68.7527 26.6382 68.1369L3.7027 54.2257Z" fill="#C92F3E"/>
<path d="M56.1818 54.2257C58.086 53.0708 59.2488 51.0054 59.2488 48.7784V20.3316C59.2488 19.2238 58.9608 18.1559 58.437 17.2202L29.9424 34.5268V69.0606C31.0868 69.0606 32.2311 68.7528 33.2463 68.137L56.1818 54.2257Z" fill="#AE2E38"/>
<path d="M40.1398 35.6772H73.2687C76.0835 35.6772 78.3654 37.9591 78.3654 40.774V73.9029C78.3654 74.8313 78.1171 75.7015 77.6836 76.4513L73.2687 77.6111H41.3008C38.486 77.6111 36.2041 75.3292 36.2041 72.5144V40.774L37.588 36.3611C38.3383 35.9263 39.21 35.6772 40.1398 35.6772Z" fill="#ECEAEC"/>
<path d="M16.3209 47.177C17.5293 46.6621 17.7711 44.5131 16.861 42.3771C15.9509 40.241 14.2334 38.9268 13.025 39.4417C11.8165 39.9566 11.5747 42.1056 12.4849 44.2417C13.395 46.3777 15.1125 47.6919 16.3209 47.177Z" fill="#FF9A9F"/>
<path d="M29.9711 19.1588C32.2889 19.1588 34.1679 17.9736 34.1679 16.5115C34.1679 15.0495 32.2889 13.8643 29.9711 13.8643C27.6533 13.8643 25.7744 15.0495 25.7744 16.5115C25.7744 17.9736 27.6533 19.1588 29.9711 19.1588Z" fill="white"/>
<path d="M43.0082 19.1588C45.326 19.1588 47.205 17.9736 47.205 16.5115C47.205 15.0495 45.326 13.8643 43.0082 13.8643C40.6905 13.8643 38.8115 15.0495 38.8115 16.5115C38.8115 17.9736 40.6905 19.1588 43.0082 19.1588Z" fill="white"/>
<path d="M16.935 19.1588C19.2528 19.1588 21.1317 17.9736 21.1317 16.5115C21.1317 15.0495 19.2528 13.8643 16.935 13.8643C14.6172 13.8643 12.7383 15.0495 12.7383 16.5115C12.7383 17.9736 14.6172 19.1588 16.935 19.1588Z" fill="white"/>
<path d="M56.7034 61.1612C58.8145 61.1612 60.526 59.4498 60.526 57.3387C60.526 55.2275 58.8145 53.5161 56.7034 53.5161C54.5923 53.5161 52.8809 55.2275 52.8809 57.3387C52.8809 59.4498 54.5923 61.1612 56.7034 61.1612Z" fill="#C92F3E"/>
<path d="M45.2356 49.6934C47.3468 49.6934 49.0582 47.982 49.0582 45.8709C49.0582 43.7597 47.3468 42.0483 45.2356 42.0483C43.1245 42.0483 41.4131 43.7597 41.4131 45.8709C41.4131 47.982 43.1245 49.6934 45.2356 49.6934Z" fill="#C92F3E"/>
<path d="M68.1731 72.629C70.2843 72.629 71.9957 70.9176 71.9957 68.8064C71.9957 66.6953 70.2843 64.9839 68.1731 64.9839C66.062 64.9839 64.3506 66.6953 64.3506 68.8064C64.3506 70.9176 66.062 72.629 68.1731 72.629Z" fill="#C92F3E"/>
<path d="M45.2326 76.452C41.0102 76.452 37.5875 73.0291 37.5875 68.8069L37.5879 36.3618C36.0731 37.2453 35.043 38.8946 35.043 40.7747V73.9036C35.043 76.7185 37.3249 79.0004 40.1397 79.0004H73.2686C75.1504 79.0004 76.8008 77.969 77.6837 76.452H45.2326Z" fill="#DAD8DB"/>
</g>
<defs>
<clipPath id="clip0_804_9848">
<rect width="79" height="79" fill="white"/>
</clipPath>
</defs>
</svg>
