<svg width="36" height="36" viewBox="0 0 36 36" fill="none" xmlns="http://www.w3.org/2000/svg">
<path d="M18.0002 34.6055C27.1713 34.6055 34.6059 27.1708 34.6059 17.9997C34.6059 8.82867 27.1713 1.39404 18.0002 1.39404C8.82915 1.39404 1.39453 8.82867 1.39453 17.9997C1.39453 27.1708 8.82915 34.6055 18.0002 34.6055Z" fill="#A01C0E"/>
<path d="M18 36C8.0756 36 0 27.9258 0 18C0 8.0756 8.0756 0 18 0C27.9258 0 36 8.0756 36 18C36 27.9258 27.9258 36 18 36ZM18 2.78852C9.61207 2.78852 2.78852 9.61207 2.78852 18C2.78852 26.3879 9.61207 33.2115 18 33.2115C26.3879 33.2115 33.2115 26.3865 33.2115 18C33.2115 9.61207 26.3879 2.78852 18 2.78852Z" fill="#A01C0E"/>
<path d="M9 23.2501V27.0001H12.75L23.81 15.9401L20.06 12.1901L9 23.2501ZM26.71 13.0401C27.1 12.6501 27.1 12.0201 26.71 11.6301L24.37 9.29006C23.98 8.90006 23.35 8.90006 22.96 9.29006L21.13 11.1201L24.88 14.8701L26.71 13.0401Z" fill="black" fill-opacity="0.87"/>
</svg>
