<svg width="40" height="45" viewBox="0 0 40 45" fill="none" xmlns="http://www.w3.org/2000/svg">
<path d="M4.93467 31.7586C8.37395 34.7848 13.2416 36.8566 18.7288 37.4086L14.7849 43.262L14.7846 43.2623C14.6716 43.4303 14.3655 43.637 13.8997 43.637C13.5498 43.637 13.2545 43.5134 13.091 43.3511L13.0904 43.3504L8.858 39.163L8.71188 39.0185H8.50634H1.45227C1.06236 39.0185 0.750809 38.8667 0.600789 38.6874C0.473491 38.5342 0.471645 38.3809 0.568126 38.2378L0.568214 38.2377L4.93467 31.7586Z" stroke="#EDEDED"/>
<path d="M39.0502 38.2377L39.0503 38.2378C39.1467 38.3808 39.1449 38.5341 39.0177 38.6872C38.8678 38.8666 38.5561 39.0185 38.1661 39.0185H31.112H30.9065L30.7604 39.163L26.5284 43.3504L26.5277 43.3511C26.3643 43.5133 26.0687 43.637 25.7187 43.637C25.2528 43.637 24.9469 43.4302 24.8343 43.2626L24.8339 43.2619L20.8896 37.4086C26.3768 36.8566 31.2444 34.7848 34.6837 31.7586L39.0502 38.2377Z" stroke="#EDEDED"/>
<mask id="path-3-inside-1_1051_1304" fill="white">
<path fill-rule="evenodd" clip-rule="evenodd" d="M20 0C29.9252 0 38 8.07477 38 18C38 27.9252 29.9252 36 20 36C10.0748 36 2 27.9249 2 18C2 8.07477 10.0748 0 20 0Z"/>
</mask>
<path d="M39 18C39 7.52249 30.4775 -1 20 -1V1C29.3729 1 37 8.62706 37 18H39ZM20 37C30.4775 37 39 28.4775 39 18H37C37 27.3729 29.3729 35 20 35V37ZM1 18C1 28.4771 9.52247 37 20 37V35C10.6271 35 3 27.3726 3 18H1ZM20 -1C9.52249 -1 1 7.52249 1 18H3C3 8.62706 10.6271 1 20 1V-1Z" fill="#EDEDED" mask="url(#path-3-inside-1_1051_1304)"/>
</svg>
