<svg width="44" height="44" viewBox="0 0 44 44" fill="none" xmlns="http://www.w3.org/2000/svg">
<path d="M37.1885 9.66475H17.5551C17.0153 8.06159 15.499 6.90332 13.7161 6.90332C11.9333 6.90332 10.4169 8.06159 9.87711 9.66475H6.8125C6.10059 9.66475 5.52344 10.2419 5.52344 10.9538C5.52344 11.6657 6.10059 12.2429 6.8125 12.2429H9.8772C10.417 13.846 11.9333 15.0043 13.7162 15.0043C15.4991 15.0043 17.0154 13.846 17.5552 12.2429H37.1885C37.9005 12.2429 38.4776 11.6657 38.4776 10.9538C38.4776 10.2419 37.9005 9.66475 37.1885 9.66475ZM13.7161 12.4262C12.9043 12.4262 12.2437 11.7657 12.2437 10.9538C12.2437 10.142 12.9043 9.48144 13.7161 9.48144C14.528 9.48144 15.1885 10.142 15.1885 10.9538C15.1885 11.7657 14.528 12.4262 13.7161 12.4262Z" fill="#A01C0E"/>
<path d="M37.1885 20.7106H34.1238C33.584 19.1075 32.0675 17.9492 30.2848 17.9492C28.502 17.9492 26.9856 19.1075 26.4459 20.7106H6.8125C6.10059 20.7106 5.52344 21.2878 5.52344 21.9997C5.52344 22.7116 6.10059 23.2888 6.8125 23.2888H26.4459C26.9856 24.8919 28.5021 26.0502 30.2848 26.0502C32.0676 26.0502 33.5841 24.8919 34.1238 23.2888H37.1885C37.9005 23.2888 38.4776 22.7116 38.4776 21.9997C38.4776 21.2878 37.9005 20.7106 37.1885 20.7106ZM30.2848 23.4721C29.473 23.4721 28.8125 22.8116 28.8125 21.9997C28.8125 21.1879 29.473 20.5273 30.2848 20.5273C31.0967 20.5273 31.7572 21.1879 31.7572 21.9997C31.7572 22.8116 31.0967 23.4721 30.2848 23.4721Z" fill="#A01C0E"/>
<path d="M37.1885 31.7565H23.078C22.5383 30.1534 21.0219 28.9951 19.2391 28.9951C17.4562 28.9951 15.9398 30.1534 15.4001 31.7565H6.8125C6.10059 31.7565 5.52344 32.3337 5.52344 33.0456C5.52344 33.7575 6.10059 34.3347 6.8125 34.3347H15.4001C15.9398 35.9378 17.4562 37.0961 19.2391 37.0961C21.0219 37.0961 22.5383 35.9378 23.078 34.3347H37.1885C37.9005 34.3347 38.4776 33.7575 38.4776 33.0456C38.4776 32.3337 37.9005 31.7565 37.1885 31.7565ZM19.2391 34.5181C18.4272 34.5181 17.7667 33.8576 17.7667 33.0457C17.7667 32.2338 18.4272 31.5733 19.2391 31.5733C20.0509 31.5733 20.7114 32.2338 20.7114 33.0456C20.7114 33.8575 20.0509 34.5181 19.2391 34.5181Z" fill="#A01C0E"/>
</svg>
