<svg width="357" height="154" viewBox="0 0 357 154" fill="none" xmlns="http://www.w3.org/2000/svg">
<path d="M132.194 38.908L66.2294 77.3086H66.1999L0 39.3792L65.9349 0.978516L132.194 38.908Z" fill="#178F66"/>
<path d="M132.193 38.9053L132.458 115.206L66.4942 153.636L66.1997 77.3059H66.2292L132.193 38.9053Z" fill="#0A5B3F"/>
<path d="M66.1999 77.3045L66.4944 153.635L0.265024 115.705L0 39.375L66.1999 77.3045Z" fill="#207D5D"/>
<path d="M83.6924 103.545C86.2133 103.545 88.2568 98.298 88.2568 91.825C88.2568 85.3519 86.2133 80.1045 83.6924 80.1045C81.1715 80.1045 79.1279 85.3519 79.1279 91.825C79.1279 98.298 81.1715 103.545 83.6924 103.545Z" fill="white"/>
<path d="M117.941 86.5825C120.461 86.5825 122.505 81.335 122.505 74.862C122.505 68.389 120.461 63.1416 117.941 63.1416C115.42 63.1416 113.376 68.389 113.376 74.862C113.376 81.335 115.42 86.5825 117.941 86.5825Z" fill="white"/>
<path d="M357 38.3391L290.616 76.6488H290.587L224.203 38.3391L290.587 0L357 38.3391Z" fill="#E45145"/>
<path d="M357 38.3418V114.991L290.587 153.359V76.6514H290.617L357 38.3418Z" fill="#A01C0E"/>
<path d="M290.587 76.6514V153.359L224.203 114.991V38.3418L290.587 76.6514Z" fill="#D33327"/>
<path d="M272.009 109.366C274.542 109.366 276.594 104.095 276.594 97.5922C276.594 91.0897 274.542 85.8184 272.009 85.8184C269.477 85.8184 267.424 91.0897 267.424 97.5922C267.424 104.095 269.477 109.366 272.009 109.366Z" fill="white"/>
<path d="M237.604 92.3261C240.137 92.3261 242.19 87.0548 242.19 80.5523C242.19 74.0497 240.137 68.7783 237.604 68.7783C235.072 68.7783 233.019 74.0497 233.019 80.5523C233.019 87.0548 235.072 92.3261 237.604 92.3261Z" fill="white"/>
<path d="M160.301 85.4411H192.66V96.5043H160.301H159.301V97.5043V100.69L146.416 90.9616L159.301 81.2327V84.4411V85.4411H160.301Z" fill="#D33327" stroke="#171724" stroke-width="2"/>
<path d="M195.759 75.013V74.013H194.759H162.384V62.9621H194.759H195.759V61.9621V58.739L208.629 68.4758L195.759 78.1943V75.013Z" fill="#178F66" stroke="#171724" stroke-width="2"/>
</svg>
