<svg width="153" height="153" viewBox="0 0 153 153" fill="none" xmlns="http://www.w3.org/2000/svg">
<g clip-path="url(#clip0_804_222)">
<path d="M106.14 153.281C80.1056 153.281 59 132.175 59 106.14C59 80.1053 80.1053 59 106.14 59L112.116 106.14L106.14 153.281Z" fill="#EAB53D"/>
<path d="M106.14 59.002C132.175 59.002 153.28 80.1073 153.28 106.142C153.28 132.177 132.175 153.283 106.14 153.283V59.002Z" fill="#E9A203"/>
<path fill-rule="evenodd" clip-rule="evenodd" d="M134.168 124.9C132.73 127.392 129.542 128.247 127.05 126.808C124.558 125.37 123.704 122.182 125.143 119.69C125.472 119.121 125.89 118.636 126.372 118.245C125.261 118.649 124.281 119.432 123.644 120.537C122.206 123.028 123.059 126.217 125.551 127.656L125.588 127.677C120.609 132.808 113.642 136 105.93 136C105.537 136 105.147 135.989 104.759 135.973L105.442 128.784L105.93 128.791C117.076 128.791 126.116 119.751 126.116 108.605C126.116 106.114 125.661 103.727 124.835 101.524L131.406 98.5195C132.644 101.641 133.325 105.045 133.325 108.605C133.325 111.741 132.793 114.75 131.822 117.556C131.969 117.624 132.118 117.701 132.261 117.783C134.753 119.221 135.607 122.409 134.168 124.9Z" fill="#EEEEEE"/>
<path fill-rule="evenodd" clip-rule="evenodd" d="M112.623 82.0331C120.275 83.9556 126.648 89.0984 130.221 95.9362L123.652 98.9389C120.226 92.6705 113.574 88.4202 105.93 88.4202C99.6583 88.4202 94.0535 91.2821 90.3517 95.7702L84.4688 91.5838C88.4625 86.5543 94.1894 82.9601 100.743 81.7029C100.729 81.5411 100.719 81.3768 100.719 81.2108C100.719 78.3337 103.053 76 105.93 76C108.807 76 111.141 78.3335 111.141 81.2108C111.141 84.088 108.807 86.4217 105.93 86.4217C105.273 86.4217 104.646 86.2986 104.067 86.0762C104.973 86.8369 106.139 87.2963 107.413 87.2963C110.29 87.2963 112.623 84.9628 112.623 82.0855L112.623 82.0331Z" fill="#EEEEEE"/>
<path fill-rule="evenodd" clip-rule="evenodd" d="M77.6989 124.908C76.2603 122.416 77.1137 119.228 79.606 117.789C82.098 116.351 85.2852 117.205 86.7237 119.697C87.0522 120.267 87.2633 120.87 87.3605 121.484C87.5661 120.319 87.3775 119.079 86.7399 117.975C85.3012 115.483 82.1135 114.629 79.622 116.067L79.5736 116.096C78.8979 113.714 78.5345 111.205 78.5345 108.607C78.5345 103.197 80.1067 98.1503 82.8147 93.9023L88.7003 98.0895C86.8271 101.153 85.7439 104.754 85.7439 108.607C85.7439 118.623 93.0437 126.934 102.611 128.518L101.927 135.709C95.2922 134.736 89.4318 131.382 85.2357 126.546C85.1013 126.641 84.9613 126.732 84.8164 126.815C82.3246 128.254 79.1374 127.399 77.6989 124.908Z" fill="#EEEEEE"/>
<path fill-rule="evenodd" clip-rule="evenodd" d="M105.931 91.542C115.349 91.542 122.99 99.1826 122.99 108.603C122.99 118.022 115.349 125.663 105.931 125.663C105.687 125.663 105.447 125.655 105.206 125.645C113.504 125.274 120.122 118.426 120.122 110.037C120.122 101.408 113.124 94.4102 104.496 94.4102C96.1047 94.4102 89.258 101.027 88.8873 109.327C88.8769 109.087 88.8696 108.846 88.8696 108.603C88.8694 99.1826 96.51 91.542 105.931 91.542Z" fill="#EEEEEE"/>
<path fill-rule="evenodd" clip-rule="evenodd" d="M104.496 96.5645C104.726 96.5645 104.953 96.5698 105.181 96.581C98.7751 96.9168 93.6835 102.219 93.6835 108.707C93.6835 115.412 99.1211 120.85 105.826 120.85C112.315 120.85 117.616 115.756 117.951 109.35C117.962 109.577 117.968 109.808 117.968 110.038C117.968 117.478 111.935 123.511 104.496 123.511C97.0557 123.511 91.0225 117.478 91.0225 110.038C91.0225 102.598 97.0557 96.5645 104.496 96.5645Z" fill="#EEEEEE"/>
<path d="M47.1403 94.2803C21.1053 94.2803 0 73.175 0 47.14C0 21.105 21.1053 0 47.1403 0L56.1045 47.1403L47.1403 94.2803Z" fill="#D63C2C"/>
<path d="M47.1401 0C73.1748 0 94.2804 21.1053 94.2804 47.1403C94.2804 73.1753 73.1751 94.2807 47.1401 94.2807V0Z" fill="#C01503"/>
<path fill-rule="evenodd" clip-rule="evenodd" d="M75.1679 65.9004C73.7296 68.3924 70.5422 69.2471 68.0502 67.8084C65.5581 66.3697 64.7045 63.1818 66.1431 60.6899C66.4717 60.1209 66.8899 59.6356 67.3722 59.2446C66.2611 59.6491 65.2807 60.4325 64.6437 61.5369C63.2058 64.0282 64.0587 67.2169 66.5515 68.6563L66.5881 68.6765C61.6087 73.8081 54.6422 77.0001 46.9295 77.0001C46.5372 77.0001 46.1471 76.9886 45.7588 76.9726L46.4425 69.7844L46.9295 69.7909C58.0761 69.7909 67.1155 60.7515 67.1155 49.6051C67.1155 47.1138 66.6607 44.727 65.8346 42.5238L72.4064 39.5195C73.6444 42.641 74.3249 46.045 74.3249 49.6051C74.3249 52.7414 73.7932 55.7504 72.8222 58.5557C72.9695 58.6236 73.1175 58.7005 73.2607 58.7831C75.7529 60.2212 76.6066 63.4093 75.1679 65.9004Z" fill="#EEEEEE"/>
<path fill-rule="evenodd" clip-rule="evenodd" d="M53.6227 23.0331C61.2747 24.9556 67.6479 30.0984 71.2212 36.9362L64.6519 39.9389C61.2261 33.6705 54.5743 29.4202 46.9297 29.4202C40.6583 29.4202 35.0535 32.2821 31.3517 36.7702L25.4688 32.5838C29.4625 27.5543 35.1894 23.9601 41.7433 22.7029C41.7288 22.5411 41.7191 22.3768 41.7191 22.2108C41.7191 19.3337 44.0526 17 46.9297 17C49.8069 17 52.1406 19.3335 52.1406 22.2108C52.1406 25.088 49.8071 27.4217 46.9297 27.4217C46.2729 27.4217 45.6458 27.2986 45.0673 27.0762C45.9726 27.8369 47.1386 28.2963 48.4128 28.2963C51.2901 28.2963 53.6234 25.9628 53.6234 23.0855L53.6227 23.0331Z" fill="#EEEEEE"/>
<path fill-rule="evenodd" clip-rule="evenodd" d="M18.6989 65.9079C17.2603 63.4158 18.1137 60.2279 20.606 58.7892C23.098 57.3506 26.2852 58.2052 27.7237 60.6972C28.0522 61.2668 28.2633 61.8703 28.3605 62.4837C28.5661 61.3194 28.3775 60.0789 27.7399 58.9752C26.3012 56.4834 23.1135 55.6287 20.622 57.0674L20.5736 57.0956C19.8979 54.7145 19.5345 52.2045 19.5345 49.6073C19.5345 44.1975 21.1067 39.1503 23.8147 34.9023L29.7003 39.0895C27.8271 42.1529 26.7439 45.7543 26.7439 49.6073C26.7439 59.6227 34.0437 67.9338 43.6108 69.5181L42.9271 76.7088C36.2922 75.7364 30.4318 72.3823 26.2357 67.5457C26.1013 67.6412 25.9613 67.7317 25.8164 67.8151C23.3246 69.2536 20.1374 68.3994 18.6989 65.9079Z" fill="#EEEEEE"/>
<path fill-rule="evenodd" clip-rule="evenodd" d="M46.9306 32.542C56.3494 32.542 63.9899 40.1826 63.9899 49.6031C63.9899 59.0221 56.3494 66.6625 46.9306 66.6625C46.687 66.6625 46.4465 66.6553 46.2057 66.6446C54.5041 66.2742 61.1218 59.4265 61.1218 51.0368C61.1218 42.4082 54.1237 35.4102 45.4961 35.4102C37.1047 35.4102 30.258 42.0271 29.8873 50.327C29.8769 50.0869 29.8696 49.8464 29.8696 49.6029C29.8694 40.1826 37.51 32.542 46.9306 32.542Z" fill="#EEEEEE"/>
<path fill-rule="evenodd" clip-rule="evenodd" d="M45.4959 37.5645C45.7258 37.5645 45.953 37.5698 46.1807 37.581C39.7751 37.9168 34.6835 43.2187 34.6835 49.7074C34.6835 56.4118 40.1211 61.8496 46.8265 61.8496C53.3154 61.8496 58.6156 56.7558 58.9506 50.3501C58.9618 50.5773 58.9685 50.808 58.9685 51.038C58.9685 58.4776 52.9354 64.5107 45.4959 64.5107C38.0557 64.5107 32.0225 58.4776 32.0225 51.038C32.0225 43.5977 38.0557 37.5645 45.4959 37.5645Z" fill="#EEEEEE"/>
</g>
<defs>
<clipPath id="clip0_804_222">
<rect width="153" height="153" fill="white"/>
</clipPath>
</defs>
</svg>
