<svg width="40" height="40" viewBox="0 0 40 40" fill="none" xmlns="http://www.w3.org/2000/svg">
<path d="M24.5049 1.59136C33.275 7.78053 43.3979 17.4033 38.8916 26.643C34.3854 35.8826 30.5558 41.3793 19.7434 39.6993C8.931 38.0193 -1.52608 29.3879 0.184736 18.9695C1.89555 8.55106 15.7341 -4.59781 24.5049 1.59136Z" fill="#171724"/>
<path d="M32.8494 31.5968C33.1622 31.5968 33.4157 31.3314 33.4157 31.004C33.4157 30.6766 33.1622 30.4111 32.8494 30.4111C32.5367 30.4111 32.2832 30.6766 32.2832 31.004C32.2832 31.3314 32.5367 31.5968 32.8494 31.5968Z" fill="#A01C0E"/>
<path d="M3.14189 27.3555C3.5061 27.3555 3.80135 27.0464 3.80135 26.6651C3.80135 26.2837 3.5061 25.9746 3.14189 25.9746C2.77767 25.9746 2.48242 26.2837 2.48242 26.6651C2.48242 27.0464 2.77767 27.3555 3.14189 27.3555Z" fill="#A01C0E"/>
<path d="M35.1818 29.1196C35.3264 29.1196 35.4436 28.9968 35.4436 28.8454C35.4436 28.694 35.3264 28.5713 35.1818 28.5713C35.0372 28.5713 34.9199 28.694 34.9199 28.8454C34.9199 28.9968 35.0372 29.1196 35.1818 29.1196Z" fill="#A01C0E"/>
<path opacity="0.6" d="M8.12119 10.1459C8.44377 10.1459 8.70528 9.87212 8.70528 9.53438C8.70528 9.19664 8.44377 8.92285 8.12119 8.92285C7.79861 8.92285 7.53711 9.19664 7.53711 9.53438C7.53711 9.87212 7.79861 10.1459 8.12119 10.1459Z" stroke="#A01C0E" stroke-width="0.8"/>
<path opacity="0.6" d="M33.3514 10.4302C33.758 10.4302 34.0876 10.0851 34.0876 9.65943C34.0876 9.23375 33.758 8.88867 33.3514 8.88867C32.9448 8.88867 32.6152 9.23375 32.6152 9.65943C32.6152 10.0851 32.9448 10.4302 33.3514 10.4302Z" stroke="#A01C0E"/>
<g clip-path="url(#clip0_1080_563)">
<path d="M20.1146 33.7662C26.5604 33.7662 31.7858 28.3006 31.7858 21.5584C31.7858 14.8162 26.5604 9.35059 20.1146 9.35059C13.6687 9.35059 8.44336 14.8162 8.44336 21.5584C8.44336 28.3006 13.6687 33.7662 20.1146 33.7662Z" fill="#213830"/>
<path d="M31.6598 23.3587C30.9107 28.6599 26.904 32.8507 21.8359 33.6342L15.2031 26.6964L25.027 16.4209L31.6598 23.3587Z" fill="#1D342C"/>
<path d="M14.3889 28C14.3889 29.1 15.2522 30 16.3074 30H23.9811C25.0363 30 25.8996 29.1 25.8996 28V16H14.3889V28ZM26.8588 13H23.5015L22.5423 12H17.7462L16.787 13H13.4297V15H26.8588V13Z" fill="#A01C0E" fill-opacity="0.87"/>
</g>
<defs>
<clipPath id="clip0_1080_563">
<rect width="23.3424" height="24.4156" fill="white" transform="translate(8.44336 9.35059)"/>
</clipPath>
</defs>
</svg>
