<svg width="26" height="31" viewBox="0 0 26 31" fill="none" xmlns="http://www.w3.org/2000/svg">
<path d="M23.4801 24.6236C23.3888 24.0875 22.959 23.7434 22.52 23.855C22.0812 23.9666 21.7995 24.4917 21.8909 25.0278C21.9435 25.3367 21.8808 25.6532 21.719 25.8964C21.6252 26.0373 21.4162 26.2735 21.0697 26.2735H5.21704C4.87054 26.2735 4.66149 26.0372 4.56774 25.8964C4.40586 25.6532 4.34319 25.3367 4.39583 25.0278C5.23819 20.085 8.80693 16.4744 12.9282 16.3526C12.9996 16.356 13.0713 16.3576 13.1434 16.3576C13.2157 16.3576 13.2877 16.3559 13.3593 16.3525C16.2624 16.4376 18.9456 18.2339 20.5706 21.1945C20.8202 21.6494 21.3244 21.7708 21.6968 21.4659C22.0691 21.1609 22.1685 20.5449 21.9189 20.0901C20.587 17.6635 18.6531 15.8989 16.448 15.0123C17.7917 13.7813 18.6628 11.82 18.6628 9.61486C18.6628 5.89691 16.1868 2.87207 13.1434 2.87207C10.0999 2.87207 7.62395 5.89691 7.62395 9.61486C7.62395 11.8213 8.49602 13.7837 9.84117 15.0146C8.60872 15.5103 7.45228 16.2816 6.44012 17.2987C4.58414 19.1637 3.2937 21.7651 2.80657 24.6236C2.65389 25.5194 2.8368 26.4394 3.30831 27.1477C3.7775 27.8525 4.47322 28.2567 5.21704 28.2567H21.0696C21.8135 28.2567 22.5092 27.8525 22.9784 27.1477C23.4499 26.4394 23.6328 25.5194 23.4801 24.6236ZM9.2473 9.61486C9.2473 6.99038 10.995 4.85524 13.1434 4.85524C15.2917 4.85524 17.0394 6.99038 17.0394 9.61486C17.0394 12.1585 15.3976 14.2425 13.3405 14.3684C13.2749 14.3669 13.2092 14.3662 13.1434 14.3662C13.0778 14.3662 13.0123 14.367 12.9469 14.3685C10.8895 14.2431 9.2473 12.1589 9.2473 9.61486Z" fill="#A01C0E" stroke="#A01C0E" stroke-width="0.4"/>
</svg>
